<mxfile host="app.diagrams.net" modified="2024-08-05T22:53:28.192Z" agent="Mozilla/5.0 (Windows NT 10.0; Win64; x64) AppleWebKit/537.36 (KHTML, like Gecko) Chrome/123.0.0.0 Safari/537.36 OPR/109.0.0.0" version="24.6.4" etag="3HRcLlBcyxFjBN7b1g5E" type="github">
  <diagram name="PÃ¡gina-1" id="6wOYXs_F3r7k27aGCbVZ">
    <mxGraphModel>
      <root>
        <mxCell id="0" />
        <mxCell id="1" parent="0" />
      </root>
    </mxGraphModel>
  </diagram>
</mxfile>
